<mxfile host="app.diagrams.net" agent="Mozilla/5.0 (X11; Linux x86_64; rv:138.0) Gecko/20100101 Firefox/138.0" version="27.0.2">
  <diagram name="Page-1" id="OWC_KKA009irrevfmrrw">
    <mxGraphModel dx="1089" dy="1208" grid="0" gridSize="10" guides="1" tooltips="1" connect="1" arrows="1" fold="1" page="0" pageScale="1" pageWidth="1169" pageHeight="827" background="light-dark(#FFFFFF,#222222)" math="0" shadow="0">
      <root>
        <mxCell id="0" />
        <mxCell id="1" parent="0" />
        <mxCell id="PfSpk5NvbkcI9RBnBGga-1" value="&lt;div align=&quot;center&quot;&gt;Pizza&lt;/div&gt;" style="swimlane;fontStyle=1;align=center;verticalAlign=top;childLayout=stackLayout;horizontal=1;startSize=26;horizontalStack=0;resizeParent=1;resizeParentMax=0;resizeLast=0;collapsible=1;marginBottom=0;whiteSpace=wrap;html=1;strokeColor=default;fontFamily=Helvetica;fontSize=12;fontColor=default;fillColor=default;" vertex="1" parent="1">
          <mxGeometry x="823" y="-133" width="240" height="180" as="geometry">
            <mxRectangle x="410" y="210" width="100" height="30" as="alternateBounds" />
          </mxGeometry>
        </mxCell>
        <mxCell id="PfSpk5NvbkcI9RBnBGga-2" value="&lt;div&gt;- size: PizzaSize&lt;/div&gt;&lt;div&gt;- dough: DoughType &lt;br&gt;&lt;/div&gt;&lt;div&gt;- toppings: List&amp;lt;String&amp;gt; &lt;span style=&quot;white-space: pre;&quot;&gt;&#x9;&lt;/span&gt;&lt;/div&gt;" style="text;strokeColor=none;fillColor=none;align=left;verticalAlign=top;spacingLeft=4;spacingRight=4;overflow=hidden;rotatable=0;points=[[0,0.5],[1,0.5]];portConstraint=eastwest;whiteSpace=wrap;html=1;fontFamily=Helvetica;fontSize=12;fontColor=default;" vertex="1" parent="PfSpk5NvbkcI9RBnBGga-1">
          <mxGeometry y="26" width="240" height="54" as="geometry" />
        </mxCell>
        <mxCell id="PfSpk5NvbkcI9RBnBGga-3" value="" style="line;strokeWidth=1;fillColor=default;align=left;verticalAlign=top;spacingTop=-1;spacingLeft=3;spacingRight=3;rotatable=0;labelPosition=right;points=[];portConstraint=eastwest;strokeColor=default;fontFamily=Helvetica;fontSize=12;fontColor=default;" vertex="1" parent="PfSpk5NvbkcI9RBnBGga-1">
          <mxGeometry y="80" width="240" height="8" as="geometry" />
        </mxCell>
        <mxCell id="PfSpk5NvbkcI9RBnBGga-4" value="&lt;div&gt;+ Pizza()&lt;/div&gt;&lt;div&gt;+ setSize(size: PizzaSize): void&lt;/div&gt;&lt;div&gt;+ setDough(dough: DoughType): void&lt;/div&gt;&lt;div&gt;+ setToppings(toppings: List&amp;lt;String&amp;gt;): void&lt;/div&gt;&lt;div&gt;+ toString(): String&lt;/div&gt;" style="text;strokeColor=none;fillColor=none;align=left;verticalAlign=top;spacingLeft=4;spacingRight=4;overflow=hidden;rotatable=0;points=[[0,0.5],[1,0.5]];portConstraint=eastwest;whiteSpace=wrap;html=1;fontFamily=Helvetica;fontSize=12;fontColor=default;" vertex="1" parent="PfSpk5NvbkcI9RBnBGga-1">
          <mxGeometry y="88" width="240" height="92" as="geometry" />
        </mxCell>
        <mxCell id="PfSpk5NvbkcI9RBnBGga-41" style="rounded=0;orthogonalLoop=1;jettySize=auto;html=1;exitX=0.5;exitY=0;exitDx=0;exitDy=0;endArrow=none;startFill=0;entryX=0.296;entryY=1.016;entryDx=0;entryDy=0;entryPerimeter=0;" edge="1" parent="1" source="PfSpk5NvbkcI9RBnBGga-5" target="PfSpk5NvbkcI9RBnBGga-4">
          <mxGeometry relative="1" as="geometry">
            <mxPoint x="896" y="47" as="targetPoint" />
          </mxGeometry>
        </mxCell>
        <mxCell id="PfSpk5NvbkcI9RBnBGga-5" value="&lt;p style=&quot;margin:0px;margin-top:4px;text-align:center;&quot;&gt;&lt;i&gt;&amp;lt;&amp;lt;enumeration&amp;gt;&amp;gt;&lt;/i&gt;&lt;b&gt;&lt;br&gt;&lt;/b&gt;&lt;/p&gt;&lt;p style=&quot;margin:0px;margin-top:4px;text-align:center;&quot;&gt;&lt;b&gt;PizzaSize&lt;/b&gt;&lt;/p&gt;" style="swimlane;fontStyle=1;align=center;verticalAlign=top;childLayout=stackLayout;horizontal=1;startSize=50;horizontalStack=0;resizeParent=1;resizeParentMax=0;resizeLast=0;collapsible=1;marginBottom=0;whiteSpace=wrap;html=1;strokeColor=default;fontFamily=Helvetica;fontSize=12;fontColor=default;fillColor=default;" vertex="1" parent="1">
          <mxGeometry x="683" y="117" width="210" height="200" as="geometry">
            <mxRectangle x="410" y="210" width="100" height="30" as="alternateBounds" />
          </mxGeometry>
        </mxCell>
        <mxCell id="PfSpk5NvbkcI9RBnBGga-6" value="&lt;div&gt;&lt;div&gt;SMALL&lt;/div&gt;&lt;div&gt;MEDIUM&lt;/div&gt;&lt;div&gt;BIG&lt;/div&gt;&lt;div&gt;JUMBO3XL&lt;/div&gt;&lt;div&gt;&lt;br&gt;&lt;/div&gt;&lt;/div&gt;" style="text;strokeColor=none;fillColor=none;align=left;verticalAlign=top;spacingLeft=4;spacingRight=4;overflow=hidden;rotatable=0;points=[[0,0.5],[1,0.5]];portConstraint=eastwest;whiteSpace=wrap;html=1;fontFamily=Helvetica;fontSize=12;fontColor=default;" vertex="1" parent="PfSpk5NvbkcI9RBnBGga-5">
          <mxGeometry y="50" width="210" height="70" as="geometry" />
        </mxCell>
        <mxCell id="PfSpk5NvbkcI9RBnBGga-7" value="" style="line;strokeWidth=1;fillColor=default;align=left;verticalAlign=top;spacingTop=-1;spacingLeft=3;spacingRight=3;rotatable=0;labelPosition=right;points=[];portConstraint=eastwest;strokeColor=default;fontFamily=Helvetica;fontSize=12;fontColor=default;" vertex="1" parent="PfSpk5NvbkcI9RBnBGga-5">
          <mxGeometry y="120" width="210" height="8" as="geometry" />
        </mxCell>
        <mxCell id="PfSpk5NvbkcI9RBnBGga-8" value="-&amp;nbsp;description: String " style="text;strokeColor=none;fillColor=none;align=left;verticalAlign=top;spacingLeft=4;spacingRight=4;overflow=hidden;rotatable=0;points=[[0,0.5],[1,0.5]];portConstraint=eastwest;whiteSpace=wrap;html=1;fontFamily=Helvetica;fontSize=12;fontColor=default;" vertex="1" parent="PfSpk5NvbkcI9RBnBGga-5">
          <mxGeometry y="128" width="210" height="32" as="geometry" />
        </mxCell>
        <mxCell id="PfSpk5NvbkcI9RBnBGga-9" value="" style="line;strokeWidth=1;fillColor=default;align=left;verticalAlign=top;spacingTop=-1;spacingLeft=3;spacingRight=3;rotatable=0;labelPosition=right;points=[];portConstraint=eastwest;strokeColor=default;fontFamily=Helvetica;fontSize=12;fontColor=default;" vertex="1" parent="PfSpk5NvbkcI9RBnBGga-5">
          <mxGeometry y="160" width="210" height="8" as="geometry" />
        </mxCell>
        <mxCell id="PfSpk5NvbkcI9RBnBGga-10" value="&lt;div&gt;&lt;div&gt;+ getDescription(): String&lt;/div&gt;&lt;/div&gt;" style="text;strokeColor=none;fillColor=none;align=left;verticalAlign=top;spacingLeft=4;spacingRight=4;overflow=hidden;rotatable=0;points=[[0,0.5],[1,0.5]];portConstraint=eastwest;whiteSpace=wrap;html=1;fontFamily=Helvetica;fontSize=12;fontColor=default;" vertex="1" parent="PfSpk5NvbkcI9RBnBGga-5">
          <mxGeometry y="168" width="210" height="32" as="geometry" />
        </mxCell>
        <mxCell id="PfSpk5NvbkcI9RBnBGga-54" style="rounded=0;orthogonalLoop=1;jettySize=auto;html=1;dashed=1;exitX=0.002;exitY=0.096;exitDx=0;exitDy=0;exitPerimeter=0;endArrow=open;endFill=0;entryX=1.004;entryY=0.085;entryDx=0;entryDy=0;entryPerimeter=0;" edge="1" parent="1" source="PfSpk5NvbkcI9RBnBGga-11" target="PfSpk5NvbkcI9RBnBGga-1">
          <mxGeometry relative="1" as="geometry">
            <mxPoint x="1093" y="-120" as="targetPoint" />
            <mxPoint x="1362" y="-118" as="sourcePoint" />
          </mxGeometry>
        </mxCell>
        <mxCell id="PfSpk5NvbkcI9RBnBGga-11" value="&lt;p style=&quot;margin:0px;margin-top:4px;text-align:center;&quot;&gt;&lt;i&gt;&amp;lt;&amp;lt;interface&amp;gt;&amp;gt;&lt;/i&gt;&lt;b&gt;&lt;br&gt;&lt;/b&gt;&lt;/p&gt;&lt;p style=&quot;margin:0px;margin-top:4px;text-align:center;&quot;&gt;&lt;b&gt;PizzaBuilder&lt;/b&gt;&lt;/p&gt;" style="swimlane;fontStyle=1;align=center;verticalAlign=top;childLayout=stackLayout;horizontal=1;startSize=50;horizontalStack=0;resizeParent=1;resizeParentMax=0;resizeLast=0;collapsible=1;marginBottom=0;whiteSpace=wrap;html=1;strokeColor=default;fontFamily=Helvetica;fontSize=12;fontColor=default;fillColor=default;" vertex="1" parent="1">
          <mxGeometry x="1368" y="-133" width="210" height="160" as="geometry">
            <mxRectangle x="410" y="210" width="100" height="30" as="alternateBounds" />
          </mxGeometry>
        </mxCell>
        <mxCell id="PfSpk5NvbkcI9RBnBGga-12" value="&lt;blockquote&gt;&lt;blockquote&gt;&lt;div&gt;&lt;span style=&quot;white-space: pre;&quot;&gt;&#x9;&lt;/span&gt;&lt;br&gt;&lt;/div&gt;&lt;/blockquote&gt;&lt;/blockquote&gt;" style="text;strokeColor=none;fillColor=none;align=left;verticalAlign=top;spacingLeft=4;spacingRight=4;overflow=hidden;rotatable=0;points=[[0,0.5],[1,0.5]];portConstraint=eastwest;whiteSpace=wrap;html=1;fontFamily=Helvetica;fontSize=12;fontColor=default;" vertex="1" parent="PfSpk5NvbkcI9RBnBGga-11">
          <mxGeometry y="50" width="210" height="30" as="geometry" />
        </mxCell>
        <mxCell id="PfSpk5NvbkcI9RBnBGga-13" value="" style="line;strokeWidth=1;fillColor=default;align=left;verticalAlign=top;spacingTop=-1;spacingLeft=3;spacingRight=3;rotatable=0;labelPosition=right;points=[];portConstraint=eastwest;strokeColor=default;fontFamily=Helvetica;fontSize=12;fontColor=default;" vertex="1" parent="PfSpk5NvbkcI9RBnBGga-11">
          <mxGeometry y="80" width="210" height="8" as="geometry" />
        </mxCell>
        <mxCell id="PfSpk5NvbkcI9RBnBGga-14" value="&lt;p style=&quot;margin:0px;margin-left:4px;&quot;&gt;+ buildSize(): void&lt;/p&gt;&lt;p style=&quot;margin:0px;margin-left:4px;&quot;&gt;+ buildDough(): void&lt;/p&gt;&lt;p style=&quot;margin:0px;margin-left:4px;&quot;&gt;+ buildToppings(): void&lt;br&gt;+ getPizza() : Pizza&lt;/p&gt;" style="text;strokeColor=none;fillColor=none;align=left;verticalAlign=top;spacingLeft=4;spacingRight=4;overflow=hidden;rotatable=0;points=[[0,0.5],[1,0.5]];portConstraint=eastwest;whiteSpace=wrap;html=1;fontFamily=Helvetica;fontSize=12;fontColor=default;" vertex="1" parent="PfSpk5NvbkcI9RBnBGga-11">
          <mxGeometry y="88" width="210" height="72" as="geometry" />
        </mxCell>
        <mxCell id="PfSpk5NvbkcI9RBnBGga-42" style="rounded=0;orthogonalLoop=1;jettySize=auto;html=1;endArrow=none;startFill=0;exitX=0.445;exitY=-0.006;exitDx=0;exitDy=0;exitPerimeter=0;" edge="1" parent="1" source="PfSpk5NvbkcI9RBnBGga-15" target="PfSpk5NvbkcI9RBnBGga-4">
          <mxGeometry relative="1" as="geometry">
            <mxPoint x="993" y="56.99999999999977" as="targetPoint" />
            <mxPoint x="1058" y="117" as="sourcePoint" />
          </mxGeometry>
        </mxCell>
        <mxCell id="PfSpk5NvbkcI9RBnBGga-15" value="&lt;p style=&quot;margin:0px;margin-top:4px;text-align:center;&quot;&gt;&lt;i&gt;&amp;lt;&amp;lt;enumeration&amp;gt;&amp;gt;&lt;/i&gt;&lt;b&gt;&lt;br&gt;&lt;/b&gt;&lt;/p&gt;&lt;p style=&quot;margin:0px;margin-top:4px;text-align:center;&quot;&gt;&lt;b&gt;DoughType&lt;/b&gt;&lt;/p&gt;" style="swimlane;fontStyle=1;align=center;verticalAlign=top;childLayout=stackLayout;horizontal=1;startSize=50;horizontalStack=0;resizeParent=1;resizeParentMax=0;resizeLast=0;collapsible=1;marginBottom=0;whiteSpace=wrap;html=1;strokeColor=default;fontFamily=Helvetica;fontSize=12;fontColor=default;fillColor=default;" vertex="1" parent="1">
          <mxGeometry x="963" y="117" width="210" height="190" as="geometry">
            <mxRectangle x="410" y="210" width="100" height="30" as="alternateBounds" />
          </mxGeometry>
        </mxCell>
        <mxCell id="PfSpk5NvbkcI9RBnBGga-16" value="&lt;div&gt;&lt;div&gt;STUFFED_CRUST&lt;/div&gt;&lt;div&gt;CRUSTY&lt;/div&gt;&lt;div&gt;THIN&lt;/div&gt;&lt;div&gt;&lt;br&gt;&lt;/div&gt;&lt;/div&gt;" style="text;strokeColor=none;fillColor=none;align=left;verticalAlign=top;spacingLeft=4;spacingRight=4;overflow=hidden;rotatable=0;points=[[0,0.5],[1,0.5]];portConstraint=eastwest;whiteSpace=wrap;html=1;fontFamily=Helvetica;fontSize=12;fontColor=default;" vertex="1" parent="PfSpk5NvbkcI9RBnBGga-15">
          <mxGeometry y="50" width="210" height="60" as="geometry" />
        </mxCell>
        <mxCell id="PfSpk5NvbkcI9RBnBGga-17" value="" style="line;strokeWidth=1;fillColor=default;align=left;verticalAlign=top;spacingTop=-1;spacingLeft=3;spacingRight=3;rotatable=0;labelPosition=right;points=[];portConstraint=eastwest;strokeColor=default;fontFamily=Helvetica;fontSize=12;fontColor=default;" vertex="1" parent="PfSpk5NvbkcI9RBnBGga-15">
          <mxGeometry y="110" width="210" height="8" as="geometry" />
        </mxCell>
        <mxCell id="PfSpk5NvbkcI9RBnBGga-18" value="-&amp;nbsp;description: String " style="text;strokeColor=none;fillColor=none;align=left;verticalAlign=top;spacingLeft=4;spacingRight=4;overflow=hidden;rotatable=0;points=[[0,0.5],[1,0.5]];portConstraint=eastwest;whiteSpace=wrap;html=1;fontFamily=Helvetica;fontSize=12;fontColor=default;" vertex="1" parent="PfSpk5NvbkcI9RBnBGga-15">
          <mxGeometry y="118" width="210" height="32" as="geometry" />
        </mxCell>
        <mxCell id="PfSpk5NvbkcI9RBnBGga-19" value="" style="line;strokeWidth=1;fillColor=default;align=left;verticalAlign=top;spacingTop=-1;spacingLeft=3;spacingRight=3;rotatable=0;labelPosition=right;points=[];portConstraint=eastwest;strokeColor=default;fontFamily=Helvetica;fontSize=12;fontColor=default;" vertex="1" parent="PfSpk5NvbkcI9RBnBGga-15">
          <mxGeometry y="150" width="210" height="8" as="geometry" />
        </mxCell>
        <mxCell id="PfSpk5NvbkcI9RBnBGga-20" value="&lt;div&gt;&lt;div&gt;+ getDescription(): String&lt;/div&gt;&lt;/div&gt;" style="text;strokeColor=none;fillColor=none;align=left;verticalAlign=top;spacingLeft=4;spacingRight=4;overflow=hidden;rotatable=0;points=[[0,0.5],[1,0.5]];portConstraint=eastwest;whiteSpace=wrap;html=1;fontFamily=Helvetica;fontSize=12;fontColor=default;" vertex="1" parent="PfSpk5NvbkcI9RBnBGga-15">
          <mxGeometry y="158" width="210" height="32" as="geometry" />
        </mxCell>
        <mxCell id="PfSpk5NvbkcI9RBnBGga-21" value="&lt;div align=&quot;center&quot;&gt;PizzaMaker&lt;/div&gt;" style="swimlane;fontStyle=1;align=center;verticalAlign=top;childLayout=stackLayout;horizontal=1;startSize=26;horizontalStack=0;resizeParent=1;resizeParentMax=0;resizeLast=0;collapsible=1;marginBottom=0;whiteSpace=wrap;html=1;strokeColor=default;fontFamily=Helvetica;fontSize=12;fontColor=default;fillColor=default;" vertex="1" parent="1">
          <mxGeometry x="1114" y="-340" width="180" height="120" as="geometry">
            <mxRectangle x="410" y="210" width="100" height="30" as="alternateBounds" />
          </mxGeometry>
        </mxCell>
        <mxCell id="PfSpk5NvbkcI9RBnBGga-22" value="- builder: PizzaBuilder " style="text;strokeColor=none;fillColor=none;align=left;verticalAlign=top;spacingLeft=4;spacingRight=4;overflow=hidden;rotatable=0;points=[[0,0.5],[1,0.5]];portConstraint=eastwest;whiteSpace=wrap;html=1;fontFamily=Helvetica;fontSize=12;fontColor=default;" vertex="1" parent="PfSpk5NvbkcI9RBnBGga-21">
          <mxGeometry y="26" width="180" height="34" as="geometry" />
        </mxCell>
        <mxCell id="PfSpk5NvbkcI9RBnBGga-23" value="" style="line;strokeWidth=1;fillColor=default;align=left;verticalAlign=top;spacingTop=-1;spacingLeft=3;spacingRight=3;rotatable=0;labelPosition=right;points=[];portConstraint=eastwest;strokeColor=default;fontFamily=Helvetica;fontSize=12;fontColor=default;" vertex="1" parent="PfSpk5NvbkcI9RBnBGga-21">
          <mxGeometry y="60" width="180" height="8" as="geometry" />
        </mxCell>
        <mxCell id="PfSpk5NvbkcI9RBnBGga-24" value="&lt;div&gt;+ PizzaMaker(PizzaBuilder)&lt;/div&gt;&lt;div&gt;+ buildPizza() : Pizza&lt;/div&gt;" style="text;strokeColor=none;fillColor=none;align=left;verticalAlign=top;spacingLeft=4;spacingRight=4;overflow=hidden;rotatable=0;points=[[0,0.5],[1,0.5]];portConstraint=eastwest;whiteSpace=wrap;html=1;fontFamily=Helvetica;fontSize=12;fontColor=default;" vertex="1" parent="PfSpk5NvbkcI9RBnBGga-21">
          <mxGeometry y="68" width="180" height="52" as="geometry" />
        </mxCell>
        <mxCell id="PfSpk5NvbkcI9RBnBGga-25" value="TomatoPizzaBuilder" style="swimlane;fontStyle=1;align=center;verticalAlign=top;childLayout=stackLayout;horizontal=1;startSize=26;horizontalStack=0;resizeParent=1;resizeParentMax=0;resizeLast=0;collapsible=1;marginBottom=0;whiteSpace=wrap;html=1;strokeColor=default;fontFamily=Helvetica;fontSize=12;fontColor=default;fillColor=default;" vertex="1" parent="1">
          <mxGeometry x="1238" y="97" width="210" height="160" as="geometry">
            <mxRectangle x="410" y="210" width="100" height="30" as="alternateBounds" />
          </mxGeometry>
        </mxCell>
        <mxCell id="PfSpk5NvbkcI9RBnBGga-26" value="- pizza: Pizza " style="text;strokeColor=none;fillColor=none;align=left;verticalAlign=top;spacingLeft=4;spacingRight=4;overflow=hidden;rotatable=0;points=[[0,0.5],[1,0.5]];portConstraint=eastwest;whiteSpace=wrap;html=1;fontFamily=Helvetica;fontSize=12;fontColor=default;" vertex="1" parent="PfSpk5NvbkcI9RBnBGga-25">
          <mxGeometry y="26" width="210" height="34" as="geometry" />
        </mxCell>
        <mxCell id="PfSpk5NvbkcI9RBnBGga-27" value="" style="line;strokeWidth=1;fillColor=default;align=left;verticalAlign=top;spacingTop=-1;spacingLeft=3;spacingRight=3;rotatable=0;labelPosition=right;points=[];portConstraint=eastwest;strokeColor=default;fontFamily=Helvetica;fontSize=12;fontColor=default;" vertex="1" parent="PfSpk5NvbkcI9RBnBGga-25">
          <mxGeometry y="60" width="210" height="8" as="geometry" />
        </mxCell>
        <mxCell id="PfSpk5NvbkcI9RBnBGga-28" value="&lt;div&gt;+ TomatoPizzaBuilder(): void&lt;/div&gt;&lt;div&gt;+ buildSize(): void&lt;/div&gt;&lt;div&gt;+ buildDough: void&lt;/div&gt;&lt;div&gt;+ buildToppings(): void&lt;/div&gt;&lt;div&gt;+ getPizza() : Pizza&lt;/div&gt;" style="text;strokeColor=none;fillColor=none;align=left;verticalAlign=top;spacingLeft=4;spacingRight=4;overflow=hidden;rotatable=0;points=[[0,0.5],[1,0.5]];portConstraint=eastwest;whiteSpace=wrap;html=1;fontFamily=Helvetica;fontSize=12;fontColor=default;" vertex="1" parent="PfSpk5NvbkcI9RBnBGga-25">
          <mxGeometry y="68" width="210" height="92" as="geometry" />
        </mxCell>
        <mxCell id="PfSpk5NvbkcI9RBnBGga-29" value="HawaiianPizzaBuilder" style="swimlane;fontStyle=1;align=center;verticalAlign=top;childLayout=stackLayout;horizontal=1;startSize=26;horizontalStack=0;resizeParent=1;resizeParentMax=0;resizeLast=0;collapsible=1;marginBottom=0;whiteSpace=wrap;html=1;strokeColor=default;fontFamily=Helvetica;fontSize=12;fontColor=default;fillColor=default;" vertex="1" parent="1">
          <mxGeometry x="1488" y="97" width="210" height="160" as="geometry">
            <mxRectangle x="410" y="210" width="100" height="30" as="alternateBounds" />
          </mxGeometry>
        </mxCell>
        <mxCell id="PfSpk5NvbkcI9RBnBGga-30" value="- pizza: Pizza " style="text;strokeColor=none;fillColor=none;align=left;verticalAlign=top;spacingLeft=4;spacingRight=4;overflow=hidden;rotatable=0;points=[[0,0.5],[1,0.5]];portConstraint=eastwest;whiteSpace=wrap;html=1;fontFamily=Helvetica;fontSize=12;fontColor=default;" vertex="1" parent="PfSpk5NvbkcI9RBnBGga-29">
          <mxGeometry y="26" width="210" height="34" as="geometry" />
        </mxCell>
        <mxCell id="PfSpk5NvbkcI9RBnBGga-31" value="" style="line;strokeWidth=1;fillColor=default;align=left;verticalAlign=top;spacingTop=-1;spacingLeft=3;spacingRight=3;rotatable=0;labelPosition=right;points=[];portConstraint=eastwest;strokeColor=default;fontFamily=Helvetica;fontSize=12;fontColor=default;" vertex="1" parent="PfSpk5NvbkcI9RBnBGga-29">
          <mxGeometry y="60" width="210" height="8" as="geometry" />
        </mxCell>
        <mxCell id="PfSpk5NvbkcI9RBnBGga-32" value="&lt;div&gt;+ HawaiianPizzaBuilder(): void&lt;/div&gt;&lt;div&gt;+ buildSize(): void&lt;/div&gt;&lt;div&gt;+ buildDough: void&lt;/div&gt;&lt;div&gt;+ buildToppings(): void&lt;/div&gt;&lt;div&gt;+ getPizza() : Pizza&lt;/div&gt;" style="text;strokeColor=none;fillColor=none;align=left;verticalAlign=top;spacingLeft=4;spacingRight=4;overflow=hidden;rotatable=0;points=[[0,0.5],[1,0.5]];portConstraint=eastwest;whiteSpace=wrap;html=1;fontFamily=Helvetica;fontSize=12;fontColor=default;" vertex="1" parent="PfSpk5NvbkcI9RBnBGga-29">
          <mxGeometry y="68" width="210" height="92" as="geometry" />
        </mxCell>
        <mxCell id="PfSpk5NvbkcI9RBnBGga-33" value="" style="endArrow=block;endFill=0;endSize=12;html=1;rounded=0;entryX=0.192;entryY=1.032;entryDx=0;entryDy=0;entryPerimeter=0;exitX=0.5;exitY=0;exitDx=0;exitDy=0;" edge="1" parent="1" source="PfSpk5NvbkcI9RBnBGga-25" target="PfSpk5NvbkcI9RBnBGga-14">
          <mxGeometry width="160" relative="1" as="geometry">
            <mxPoint x="1528" y="297" as="sourcePoint" />
            <mxPoint x="1688" y="297" as="targetPoint" />
          </mxGeometry>
        </mxCell>
        <mxCell id="PfSpk5NvbkcI9RBnBGga-34" value="" style="endArrow=block;endFill=0;endSize=12;html=1;rounded=0;entryX=0.777;entryY=1.037;entryDx=0;entryDy=0;entryPerimeter=0;" edge="1" parent="1" target="PfSpk5NvbkcI9RBnBGga-14">
          <mxGeometry width="160" relative="1" as="geometry">
            <mxPoint x="1594" y="96" as="sourcePoint" />
            <mxPoint x="1545" y="29" as="targetPoint" />
          </mxGeometry>
        </mxCell>
        <mxCell id="PfSpk5NvbkcI9RBnBGga-43" style="rounded=0;orthogonalLoop=1;jettySize=auto;html=1;exitX=0.75;exitY=0;exitDx=0;exitDy=0;endArrow=none;startFill=0;entryX=0.328;entryY=1.004;entryDx=0;entryDy=0;entryPerimeter=0;" edge="1" parent="1" source="PfSpk5NvbkcI9RBnBGga-1" target="PfSpk5NvbkcI9RBnBGga-24">
          <mxGeometry relative="1" as="geometry">
            <mxPoint x="1090" y="-99" as="sourcePoint" />
            <mxPoint x="1198" y="-169" as="targetPoint" />
          </mxGeometry>
        </mxCell>
        <mxCell id="PfSpk5NvbkcI9RBnBGga-50" value="inherits" style="text;html=1;align=center;verticalAlign=middle;whiteSpace=wrap;rounded=0;rotation=45;textOpacity=50;" vertex="1" parent="1">
          <mxGeometry x="1546" y="50" width="60" height="30" as="geometry" />
        </mxCell>
        <mxCell id="PfSpk5NvbkcI9RBnBGga-51" value="inherits" style="text;html=1;align=center;verticalAlign=middle;whiteSpace=wrap;rounded=0;rotation=-45;textOpacity=50;" vertex="1" parent="1">
          <mxGeometry x="1333" y="50" width="60" height="30" as="geometry" />
        </mxCell>
        <mxCell id="PfSpk5NvbkcI9RBnBGga-55" style="rounded=0;orthogonalLoop=1;jettySize=auto;html=1;dashed=1;entryX=0.64;entryY=1.092;entryDx=0;entryDy=0;entryPerimeter=0;exitX=0.25;exitY=0;exitDx=0;exitDy=0;endArrow=open;endFill=0;" edge="1" parent="1" source="PfSpk5NvbkcI9RBnBGga-11" target="PfSpk5NvbkcI9RBnBGga-24">
          <mxGeometry relative="1" as="geometry">
            <mxPoint x="1075.4166412353516" y="-107.83332061767578" as="targetPoint" />
            <mxPoint x="1372" y="-108" as="sourcePoint" />
          </mxGeometry>
        </mxCell>
      </root>
    </mxGraphModel>
  </diagram>
</mxfile>
